<?xml version="1.0" standalone="no"?>
<!DOCTYPE svg PUBLIC "-//W3C//DTD SVG 20010904//EN"
 "http://www.w3.org/TR/2001/REC-SVG-20010904/DTD/svg10.dtd">
<svg version="1.0" xmlns="http://www.w3.org/2000/svg"
 width="40.000000pt" height="48.000000pt" viewBox="0 0 40.000000 48.000000"
 preserveAspectRatio="xMidYMid meet">
<metadata>
Created by potrace 1.15, written by Peter Selinger 2001-2017
</metadata>
<g transform="translate(0.000000,48.000000) scale(0.100000,-0.100000)"
fill="#000000" stroke="none">
<path d="M20 460 c-15 -15 -20 -33 -20 -70 l0 -50 195 0 195 0 0 60 c0 48 -4
61 -19 70 -11 6 -87 10 -175 10 -143 0 -158 -2 -176 -20z"/>
<path d="M0 179 c0 -136 8 -169 40 -169 18 0 20 9 22 123 l3 122 115 3 c172 4
160 14 160 -128 0 -92 3 -120 13 -120 31 0 37 24 37 162 l0 138 -195 0 -195 0
0 -131z"/>
</g>
</svg>
